<svg id="visual" viewBox="0 0 900 900" width="900" height="900" xmlns="http://www.w3.org/2000/svg" xmlns:xlink="http://www.w3.org/1999/xlink" version="1.1"><rect x="0" y="0" width="900" height="900" fill="#d4e4ec"></rect><path d="M468 0L455.2 30C442.3 60 416.7 120 419.2 180C421.7 240 452.3 300 472.7 360C493 420 503 480 485 540C467 600 421 660 407.8 720C394.7 780 414.3 840 424.2 870L434 900L0 900L0 870C0 840 0 780 0 720C0 660 0 600 0 540C0 480 0 420 0 360C0 300 0 240 0 180C0 120 0 60 0 30L0 0Z" fill="#0066FF" stroke-linecap="round" stroke-linejoin="miter"></path></svg>